<svg width="24" height="24" viewBox="0 0 24 24" fill="none" xmlns="http://www.w3.org/2000/svg"><rect width="24" height="24" fill="none" rx="0" ry="0"></rect><path fill-rule="evenodd" clip-rule="evenodd" d="M17.4641 12.959C17.3165 13.1845 17.1164 13.3766 16.875 13.516L9.375 17.8461C8.83355 18.1587 8.16645 18.1587 7.625 17.8461C7.582 17.8213 7.54031 17.7948 7.5 17.7667V21.9286C7.5 22.3135 7.91666 22.5541 8.25 22.3616L20.25 15.4334C20.5833 15.241 20.5833 14.7599 20.25 14.5674L17.4641 12.959Z" fill="#22a6b3"></path><path fill-rule="evenodd" clip-rule="eve nodd" d="M2.3999 20.0004C2.3999 20.3318 2.66853 20.6004 2.9999 20.6004C3.33127 20.6004 3.5999 20.3318 3.5999 20.0004L3.5999 4.00039C3.5999 3.66902 3.33127 3.40039 2.9999 3.40039C2.66853 3.40039 2.3999 3.66902 2.3999 4.00039V20.0004ZM20.3999 20.0004C20.3999 20.3318 20.6685 20.6004 20.9999 20.6004C21.3313 20.6004 21.5999 20.3318 21.5999 20.0004V4.00039C21.5999 3.66902 21.3313 3.40039 20.9999 3.40039C20.6685 3.40039 20.3999 3.66902 20.3999 4.00039V20.0004ZM7.62489 6.15473C7.54526 6.2007 7.47013 6.25241 7.39989 6.30916V5.00039C7.39989 4.66902 7.66852 4.40039 7.99989 4.40039H15.9999C16.3313 4.40039 16.5999 4.66902 16.5999 5.00039V10.3261L15.3999 9.63326V5.60039H8.59989V5.92313C8.26483 5.90397 7.9255 5.98117 7.62489 6.15473ZM7.39989 20.0004V17.6916C7.47013 17.7484 7.54526 17.8001 7.62489 17.8461C7.9255 18.0196 8.26483 18.0968 8.59989 18.0777V19.4004H15.3999V14.6004H14.9966L16.5284 13.716C16.574 13.8007 16.5999 13.8975 16.5999 14.0004V20.0004C16.5999 20.3318 16.3313 20.6004 15.9999 20.6004H7.99989C7.66852 20.6004 7.39989 20.3318 7.39989 20.0004ZM18.4999 13.0004C18.1493 13.0004 17.8409 12.82 17.6624 12.547C17.7196 12.3731 17.7499 12.1889 17.7499 12.0004C17.7499 11.8119 17.7196 11.6277 17.6624 11.4538C17.8409 11.1808 18.1493 11.0004 18.4999 11.0004C19.0522 11.0004 19.4999 11.4481 19.4999 12.0004C19.4999 12.5527 19.0522 13.0004 18.4999 13.0004ZM19.4999 6.00039C19.4999 6.55268 19.0522 7.00039 18.4999 7.00039C17.9476 7.00039 17.4999 6.55268 17.4999 6.00039C17.4999 5.44811 17.9476 5.00039 18.4999 5.00039C19.0522 5.00039 19.4999 5.44811 19.4999 6.00039ZM19.4999 18.0004C19.4999 18.5527 19.0522 19.0004 18.4999 19.0004C17.9476 19.0004 17.4999 18.5527 17.4999 18.0004C17.4999 17.4481 17.9476 17.0004 18.4999 17.0004C19.0522 17.0004 19.4999 17.4481 19.4999 18.0004ZM5.4999 7.00039C6.05218 7.00039 6.4999 6.55268 6.4999 6.00039C6.4999 5.44811 6.05218 5.00039 5.4999 5.00039C4.94761 5.00039 4.4999 5.44811 4.4999 6.00039C4.4999 6.55268 4.94761 7.00039 5.4999 7.00039ZM6.4999 12.0004C6.4999 12.5527 6.05218 13.0004 5.4999 13.0004C4.94761 13.0004 4.4999 12.5527 4.4999 12.0004C4.4999 11.4481 4.94761 11.0004 5.4999 11.0004C6.05218 11.0004 6.4999 11.4481 6.4999 12.0004ZM5.4999 19.0004C6.05218 19.0004 6.4999 18.5527 6.4999 18.0004C6.4999 17.4481 6.05218 17.0004 5.4999 17.0004C4.94761 17.0004 4.4999 17.4481 4.4999 18.0004C4.4999 18.5527 4.94761 19.0004 5.4999 19.0004ZM16.2999 12.52C16.4855 12.4128 16.5999 12.2148 16.5999 12.0004C16.5999 11.786 16.4855 11.588 16.2999 11.4808L8.7999 7.15065C8.61426 7.04347 8.38554 7.04347 8.1999 7.15065C8.01426 7.25783 7.8999 7.45591 7.8999 7.67027L7.8999 16.3305C7.8999 16.5449 8.01426 16.743 8.1999 16.8501C8.38554 16.9573 8.61426 16.9573 8.7999 16.8501L16.2999 12.52ZM9.0999 8.7095L14.7999 12.0004L9.0999 15.2913L9.0999 8.7095Z" fill="#ffffff"></path></svg>